<svg width="25" height="20" viewBox="0 0 25 20" fill="none" xmlns="http://www.w3.org/2000/svg">
<g clip-path="url(#clip0_272_247)">
<rect width="25" height="17" rx="2" fill="currentColor"/>
<path d="M12.5 20L10 17H14L12.5 20Z" fill="currentColor"/>
<path d="M2.86062 12V4.72727H4.3734V7.46165H4.41957C4.48585 7.31487 4.58174 7.16572 4.70721 7.0142C4.83505 6.86032 5.00077 6.73248 5.20437 6.63068C5.41033 6.52652 5.66602 6.47443 5.97141 6.47443C6.36914 6.47443 6.73609 6.5786 7.07227 6.78693C7.40844 6.9929 7.67714 7.30421 7.87837 7.72088C8.0796 8.13518 8.18022 8.65483 8.18022 9.27983C8.18022 9.88826 8.08197 10.402 7.88548 10.821C7.69135 11.2377 7.4262 11.5537 7.09002 11.7692C6.75621 11.9822 6.38216 12.0888 5.96786 12.0888C5.6743 12.0888 5.42454 12.0402 5.21857 11.9432C5.01497 11.8461 4.84807 11.7242 4.71786 11.5774C4.58765 11.4283 4.48822 11.2779 4.41957 11.1264H4.3521V12H2.86062ZM4.34144 9.27273C4.34144 9.59706 4.38642 9.87997 4.47638 10.1214C4.56635 10.3629 4.69656 10.5511 4.86701 10.6861C5.03746 10.8187 5.24461 10.8849 5.48846 10.8849C5.73467 10.8849 5.943 10.8175 6.11346 10.6825C6.28391 10.5452 6.41294 10.3558 6.50053 10.1143C6.59049 9.8705 6.63548 9.58996 6.63548 9.27273C6.63548 8.95786 6.59168 8.68087 6.50408 8.44176C6.41649 8.20265 6.28746 8.01562 6.11701 7.88068C5.94656 7.74574 5.73704 7.67827 5.48846 7.67827C5.24225 7.67827 5.03391 7.74337 4.86346 7.87358C4.69537 8.00379 4.56635 8.18845 4.47638 8.42756C4.38642 8.66667 4.34144 8.94839 4.34144 9.27273ZM10.7024 4.72727V12H9.18963V4.72727H10.7024ZM14.3787 12.1065C13.8271 12.1065 13.3501 11.9893 12.9476 11.755C12.5475 11.5182 12.2386 11.1892 12.0208 10.7678C11.803 10.344 11.6941 9.85275 11.6941 9.29403C11.6941 8.73059 11.803 8.23816 12.0208 7.81676C12.2386 7.39299 12.5475 7.06392 12.9476 6.82955C13.3501 6.5928 13.8271 6.47443 14.3787 6.47443C14.9303 6.47443 15.4062 6.5928 15.8063 6.82955C16.2087 7.06392 16.5189 7.39299 16.7367 7.81676C16.9545 8.23816 17.0634 8.73059 17.0634 9.29403C17.0634 9.85275 16.9545 10.344 16.7367 10.7678C16.5189 11.1892 16.2087 11.5182 15.8063 11.755C15.4062 11.9893 14.9303 12.1065 14.3787 12.1065ZM14.3858 10.9347C14.6368 10.9347 14.8463 10.8636 15.0144 10.7216C15.1825 10.5772 15.3091 10.3807 15.3944 10.1321C15.4819 9.88352 15.5257 9.60062 15.5257 9.28338C15.5257 8.96615 15.4819 8.68324 15.3944 8.43466C15.3091 8.18608 15.1825 7.98958 15.0144 7.84517C14.8463 7.70076 14.6368 7.62855 14.3858 7.62855C14.1325 7.62855 13.9194 7.70076 13.7466 7.84517C13.5762 7.98958 13.4471 8.18608 13.3596 8.43466C13.2743 8.68324 13.2317 8.96615 13.2317 9.28338C13.2317 9.60062 13.2743 9.88352 13.3596 10.1321C13.4471 10.3807 13.5762 10.5772 13.7466 10.7216C13.9194 10.8636 14.1325 10.9347 14.3858 10.9347ZM20.5044 14.1591C20.0144 14.1591 19.5942 14.0916 19.2438 13.9567C18.8958 13.8241 18.6188 13.643 18.4128 13.4134C18.2069 13.1837 18.0731 12.9257 18.0115 12.6392L19.4107 12.451C19.4533 12.5599 19.5208 12.6617 19.6131 12.7564C19.7054 12.8511 19.8274 12.9268 19.9789 12.9837C20.1328 13.0429 20.3198 13.0724 20.54 13.0724C20.869 13.0724 21.1401 12.992 21.3532 12.831C21.5686 12.6723 21.6763 12.406 21.6763 12.032V11.0341H21.6124C21.5461 11.1856 21.4467 11.3288 21.3141 11.4638C21.1815 11.5987 21.0111 11.7088 20.8027 11.794C20.5944 11.8793 20.3458 11.9219 20.057 11.9219C19.6474 11.9219 19.2746 11.8272 18.9384 11.6378C18.6046 11.446 18.3382 11.1536 18.1394 10.7607C17.9429 10.3653 17.8446 9.86577 17.8446 9.26207C17.8446 8.64418 17.9453 8.12808 18.1465 7.71378C18.3477 7.29948 18.6152 6.98935 18.949 6.78338C19.2852 6.57741 19.6533 6.47443 20.0534 6.47443C20.3588 6.47443 20.6145 6.52652 20.8205 6.63068C21.0265 6.73248 21.1922 6.86032 21.3176 7.0142C21.4455 7.16572 21.5437 7.31487 21.6124 7.46165H21.6692V6.54545H23.1713V12.0533C23.1713 12.5173 23.0577 12.9055 22.8304 13.218C22.6032 13.5305 22.2883 13.7649 21.8858 13.9212C21.4857 14.0798 21.0253 14.1591 20.5044 14.1591ZM20.5364 10.7855C20.7802 10.7855 20.9862 10.7251 21.1543 10.6044C21.3248 10.4813 21.455 10.3061 21.5449 10.0788C21.6373 9.8492 21.6834 9.57457 21.6834 9.25497C21.6834 8.93537 21.6384 8.65838 21.5485 8.42401C21.4585 8.18726 21.3283 8.00379 21.1578 7.87358C20.9874 7.74337 20.7802 7.67827 20.5364 7.67827C20.2878 7.67827 20.0783 7.74574 19.9078 7.88068C19.7374 8.01326 19.6084 8.19792 19.5208 8.43466C19.4332 8.6714 19.3894 8.94484 19.3894 9.25497C19.3894 9.56984 19.4332 9.84209 19.5208 10.0717C19.6107 10.299 19.7398 10.4754 19.9078 10.6009C20.0783 10.724 20.2878 10.7855 20.5364 10.7855Z" fill="white"/>
</g>
<defs>
<clipPath id="clip0_272_247">
<rect width="25" height="20" fill="white"/>
</clipPath>
</defs>
</svg>
