<svg width="66" height="51" viewBox="0 0 66 51" fill="none" xmlns="http://www.w3.org/2000/svg">
<g clip-path="url(#clip0_453_1384)">
<path fill-rule="evenodd" clip-rule="evenodd" d="M54.0027 25.5019C54.0027 25.8997 53.8446 26.2813 53.5633 26.5626C53.282 26.8439 52.9005 27.0019 52.5027 27.0019H17.1237L26.5647 36.4399C26.8463 36.7216 27.0046 37.1036 27.0046 37.5019C27.0046 37.9002 26.8463 38.2822 26.5647 38.5639C26.283 38.8456 25.901 39.0038 25.5027 39.0038C25.1044 39.0038 24.7223 38.8456 24.4407 38.5639L12.4407 26.5639C12.301 26.4246 12.1902 26.259 12.1145 26.0768C12.0389 25.8946 12 25.6992 12 25.5019C12 25.3046 12.0389 25.1092 12.1145 24.927C12.1902 24.7448 12.301 24.5792 12.4407 24.4399L24.4407 12.4399C24.5801 12.3004 24.7457 12.1898 24.9279 12.1143C25.1101 12.0388 25.3054 12 25.5027 12C25.901 12 26.283 12.1582 26.5647 12.4399C26.8463 12.7216 27.0046 13.1036 27.0046 13.5019C27.0046 13.9002 26.8463 14.2822 26.5647 14.5639L17.1237 24.0019H52.5027C52.9005 24.0019 53.282 24.1599 53.5633 24.4412C53.8446 24.7225 54.0027 25.1041 54.0027 25.5019Z" fill="#0D0D0D"/>
</g>
<defs>
<clipPath id="clip0_453_1384">
<rect width="51.0038" height="66.0027" fill="white" transform="matrix(0 1 1 0 0 0)"/>
</clipPath>
</defs>
</svg>
