<svg width="66" height="51" viewBox="0 0 66 51" fill="none" xmlns="http://www.w3.org/2000/svg">
<g clip-path="url(#clip0_453_1382)">
<path fill-rule="evenodd" clip-rule="evenodd" d="M12.0002 25.5019C12.0002 25.8997 12.1583 26.2813 12.4396 26.5626C12.7209 26.8439 13.1024 27.0019 13.5002 27.0019H48.8792L39.4382 36.4399C39.1566 36.7216 38.9984 37.1036 38.9984 37.5019C38.9984 37.9002 39.1566 38.2822 39.4382 38.5639C39.7199 38.8456 40.1019 39.0038 40.5002 39.0038C40.8986 39.0038 41.2806 38.8456 41.5622 38.5639L53.5622 26.5639C53.7019 26.4246 53.8128 26.259 53.8884 26.0768C53.964 25.8946 54.0029 25.6992 54.0029 25.5019C54.0029 25.3046 53.964 25.1092 53.8884 24.927C53.8128 24.7448 53.7019 24.5792 53.5622 24.4399L41.5622 12.4399C41.4228 12.3004 41.2572 12.1898 41.075 12.1143C40.8928 12.0388 40.6975 12 40.5002 12C40.1019 12 39.7199 12.1582 39.4382 12.4399C39.1566 12.7216 38.9984 13.1036 38.9984 13.5019C38.9984 13.9002 39.1566 14.2822 39.4382 14.5639L48.8792 24.0019H13.5002C13.1024 24.0019 12.7209 24.1599 12.4396 24.4412C12.1583 24.7225 12.0002 25.1041 12.0002 25.5019Z" fill="#0D0D0D"/>
</g>
<defs>
<clipPath id="clip0_453_1382">
<rect width="51.0038" height="66.0027" fill="white" transform="matrix(0 1 -1 0 66.0029 0)"/>
</clipPath>
</defs>
</svg>
