<svg width="32" height="32" viewBox="0 0 32 32" fill="none" xmlns="http://www.w3.org/2000/svg">
<path d="M3.42871 8.00003C3.42871 7.69693 3.54912 7.40624 3.76345 7.19191C3.97777 6.97759 4.26846 6.85718 4.57157 6.85718H25.143C25.4461 6.85718 25.7368 6.97759 25.9511 7.19191C26.1654 7.40624 26.2859 7.69693 26.2859 8.00003C26.2859 8.30314 26.1654 8.59383 25.9511 8.80816C25.7368 9.02248 25.4461 9.14289 25.143 9.14289H4.57157C4.26846 9.14289 3.97777 9.02248 3.76345 8.80816C3.54912 8.59383 3.42871 8.30314 3.42871 8.00003ZM3.42871 24C3.42871 23.6969 3.54912 23.4062 3.76345 23.1919C3.97777 22.9776 4.26846 22.8572 4.57157 22.8572H22.8573C23.1604 22.8572 23.4511 22.9776 23.6654 23.1919C23.8797 23.4062 24.0001 23.6969 24.0001 24C24.0001 24.3031 23.8797 24.5938 23.6654 24.8082C23.4511 25.0225 23.1604 25.1429 22.8573 25.1429H4.57157C4.26846 25.1429 3.97777 25.0225 3.76345 24.8082C3.54912 24.5938 3.42871 24.3031 3.42871 24ZM4.57157 14.8572C4.26846 14.8572 3.97777 14.9776 3.76345 15.1919C3.54912 15.4062 3.42871 15.6969 3.42871 16C3.42871 16.3031 3.54912 16.5938 3.76345 16.8082C3.97777 17.0225 4.26846 17.1429 4.57157 17.1429H27.4287C27.7318 17.1429 28.0225 17.0225 28.2368 16.8082C28.4512 16.5938 28.5716 16.3031 28.5716 16C28.5716 15.6969 28.4512 15.4062 28.2368 15.1919C28.0225 14.9776 27.7318 14.8572 27.4287 14.8572H4.57157Z" fill="#0D0D0D"/>
</svg>
