<svg width="8" height="16" viewBox="0 0 8 16" fill="none" xmlns="http://www.w3.org/2000/svg">
<path d="M7.10368 4.7049V6.97763H0.370728V4.7049H7.10368ZM1.91192 15.614V3.91655C1.91192 3.12583 2.0658 2.47005 2.37357 1.94922C2.68607 1.42839 3.1122 1.03776 3.65198 0.777344C4.19175 0.516927 4.80491 0.386719 5.49147 0.386719C5.95548 0.386719 6.37925 0.42223 6.76277 0.493254C7.15103 0.564276 7.43986 0.628197 7.62925 0.685015L7.08948 2.95774C6.97111 2.91986 6.82433 2.88435 6.64914 2.85121C6.47868 2.81806 6.30349 2.80149 6.12357 2.80149C5.67849 2.80149 5.36836 2.90566 5.19317 3.11399C5.01798 3.31759 4.93039 3.60405 4.93039 3.97337V15.614H1.91192Z" fill="black"/>
</svg>
