<svg width="16" class="sns2" height="16" viewBox="0 0 16 16" fill="none" xmlns="http://www.w3.org/2000/svg">
<path d="M4.68678 0.0559507C3.83557 0.0961111 3.25429 0.231952 2.74612 0.431634C2.2202 0.636597 1.77443 0.911639 1.33091 1.35676C0.887382 1.80189 0.614259 2.24797 0.410737 2.7747C0.213775 3.28398 0.0803338 3.86575 0.0427334 4.71744C0.00513303 5.56913 -0.00318706 5.84289 0.000972982 8.01539C0.00513302 10.1879 0.0147331 10.4602 0.0560135 11.3137C0.096654 12.1647 0.232015 12.7458 0.431697 13.2542C0.636979 13.7801 0.911702 14.2257 1.35699 14.6694C1.80227 15.1131 2.24804 15.3855 2.77604 15.5894C3.28485 15.786 3.86677 15.9201 4.7183 15.9574C5.56983 15.9947 5.84391 16.0033 8.01577 15.9992C10.1876 15.995 10.4611 15.9854 11.3144 15.9449C12.1677 15.9044 12.7457 15.7681 13.2542 15.5694C13.7802 15.3636 14.2261 15.0894 14.6694 14.6439C15.1128 14.1985 15.3858 13.7521 15.5891 13.225C15.7863 12.7162 15.9202 12.1343 15.9571 11.2834C15.9944 10.4295 16.0032 10.1569 15.9991 7.98467C15.9949 5.81249 15.9851 5.54017 15.9447 4.68704C15.9042 3.83391 15.7687 3.25454 15.5691 2.7459C15.3635 2.21997 15.0891 1.77469 14.644 1.33068C14.1989 0.886679 13.7522 0.613876 13.2253 0.410994C12.7161 0.214032 12.1345 0.0797909 11.283 0.0429905C10.4315 0.00619015 10.1574 -0.00324994 7.98473 0.000910099C5.81207 0.00507014 5.54007 0.0143502 4.68678 0.0559507ZM4.78022 14.5182C4.00021 14.4843 3.57669 14.3547 3.29445 14.2462C2.92068 14.1022 2.65444 13.9281 2.37316 13.6495C2.09187 13.371 1.91907 13.1038 1.77315 12.7308C1.66355 12.4486 1.53155 12.0255 1.49507 11.2455C1.45539 10.4025 1.44707 10.1493 1.44243 8.01347C1.43779 5.87761 1.44595 5.62481 1.48291 4.78144C1.51619 4.00207 1.64659 3.57807 1.75491 3.29598C1.89891 2.92174 2.07235 2.65598 2.35156 2.37485C2.63076 2.09373 2.89716 1.92061 3.27045 1.77469C3.55237 1.66461 3.97541 1.53373 4.7551 1.49661C5.59879 1.4566 5.85159 1.4486 7.98713 1.44396C10.1227 1.43932 10.3761 1.44732 11.2201 1.48445C11.9995 1.51837 12.4237 1.64749 12.7054 1.75645C13.0793 1.90045 13.3454 2.07341 13.6266 2.35309C13.9077 2.63278 14.081 2.89822 14.2269 3.2723C14.3371 3.55343 14.468 3.97631 14.5048 4.75648C14.545 5.60017 14.5541 5.85313 14.5579 7.98851C14.5618 10.1239 14.5542 10.3775 14.5173 11.2205C14.4832 12.0006 14.3539 12.4242 14.2453 12.7068C14.1013 13.0804 13.9277 13.3468 13.6483 13.6278C13.3689 13.9087 13.1029 14.0819 12.7294 14.2278C12.4478 14.3377 12.0243 14.4689 11.2452 14.506C10.4016 14.5457 10.1488 14.554 8.01241 14.5587C5.87607 14.5633 5.62407 14.5547 4.78038 14.5182M11.302 3.72431C11.3024 3.91419 11.359 4.09972 11.4648 4.25742C11.5705 4.41513 11.7207 4.53792 11.8962 4.61028C12.0718 4.68264 12.2649 4.70131 12.451 4.66393C12.6372 4.62655 12.8081 4.53481 12.9421 4.40029C13.0762 4.26577 13.1673 4.09454 13.204 3.90823C13.2407 3.72192 13.2213 3.52892 13.1483 3.35363C13.0753 3.17834 12.9519 3.02863 12.7938 2.92344C12.6358 2.81826 12.45 2.76232 12.2601 2.7627C12.0056 2.76321 11.7617 2.86479 11.582 3.04512C11.4023 3.22545 11.3016 3.46975 11.302 3.72431ZM3.89237 8.00803C3.89685 10.2769 5.73943 12.1119 8.00778 12.1076C10.2761 12.1033 12.1125 10.2609 12.1081 7.99203C12.1038 5.72321 10.2608 3.88767 7.99209 3.89215C5.72343 3.89663 3.88805 5.73953 3.89237 8.00803ZM5.33335 8.00515C5.3323 7.47772 5.48769 6.96182 5.77984 6.5227C6.072 6.08358 6.48781 5.74095 6.9747 5.53815C7.46158 5.33534 7.99767 5.28147 8.51517 5.38335C9.03267 5.48522 9.50834 5.73826 9.88203 6.11047C10.2557 6.48268 10.5106 6.95735 10.6146 7.47444C10.7185 7.99153 10.6667 8.52783 10.4659 9.01551C10.265 9.5032 9.92401 9.92036 9.48604 10.2143C9.04808 10.5082 8.53281 10.6656 8.00537 10.6666C7.65516 10.6674 7.30823 10.5991 6.9844 10.4657C6.66057 10.3324 6.36619 10.1365 6.11806 9.88938C5.86993 9.64223 5.67292 9.34862 5.53828 9.02532C5.40363 8.70202 5.334 8.35537 5.33335 8.00515Z" fill="black"/>
</svg>
